<svg width="17" height="9" viewBox="0 0 17 9" fill="none" xmlns="http://www.w3.org/2000/svg">
<path d="M8.5 9C8.60204 9 8.70068 8.98087 8.79592 8.94261C8.89116 8.89798 8.97619 8.83741 9.05102 8.76089L16.7857 1.11902C16.9286 0.985122 17 0.832094 17 0.659936C17 0.538789 16.966 0.427205 16.898 0.325186C16.8367 0.223167 16.7551 0.143464 16.6531 0.0860786C16.551 0.0286929 16.432 0 16.2959 0C16.1054 0 15.9388 0.063762 15.7959 0.191286L8.05102 7.82359H8.94898L1.19388 0.191286C1.06463 0.063762 0.897959 0 0.693878 0C0.564626 0 0.445578 0.0286929 0.336735 0.0860786C0.234694 0.143464 0.153061 0.223167 0.0918367 0.325186C0.0306122 0.427205 0 0.538789 0 0.659936C0 0.755579 0.0170068 0.841658 0.0510204 0.918172C0.0918367 0.994687 0.146259 1.06482 0.214286 1.12859L7.94898 8.76089C8.11905 8.9203 8.30272 9 8.5 9Z" fill="white"/>
</svg>
