<svg width="37" height="44" viewBox="0 0 37 44" fill="none" xmlns="http://www.w3.org/2000/svg">
    <path d="M18.0043 0C17.5371 0 17.1504 0.153057 16.8443 0.45917C16.5543 0.749172 16.4093 1.12779 16.4093 1.59501V33.1869L16.5784 39.7603L17.521 39.422L10.0534 31.3744L2.70669 24.1002C2.5778 23.9552 2.40863 23.8505 2.19918 23.786C1.98974 23.7055 1.78029 23.6652 1.57084 23.6652C1.11973 23.6652 0.741116 23.8182 0.435003 24.1243C0.145001 24.4305 0 24.8091 0 25.2602C0 25.6952 0.169168 26.0899 0.507503 26.4444L16.7959 42.7328C16.9732 42.91 17.1585 43.0389 17.3518 43.1195C17.5612 43.2161 17.7787 43.2645 18.0043 43.2645C18.246 43.2645 18.4635 43.2161 18.6568 43.1195C18.8662 43.0389 19.0515 42.91 19.2126 42.7328L35.5252 26.4444C35.8475 26.0899 36.0086 25.6952 36.0086 25.2602C36.0086 24.8091 35.8555 24.4305 35.5494 24.1243C35.2594 23.8182 34.8969 23.6652 34.4619 23.6652C34.2363 23.6652 34.0188 23.7055 33.8094 23.786C33.6161 23.8505 33.4469 23.9552 33.3019 24.1002L25.9552 31.3744L18.4876 39.422L19.4543 39.7603L19.6235 33.1869V1.59501C19.6235 1.12779 19.4704 0.749172 19.1643 0.45917C18.8582 0.153057 18.4715 0 18.0043 0Z"
          fill="white"/>
</svg>
