<svg width="23" height="27" viewBox="0 0 23 27" fill="none" xmlns="http://www.w3.org/2000/svg">
<path d="M11.5027 0.945648C11.2234 0.945648 10.9922 1.03715 10.8092 1.22015C10.6358 1.39352 10.5492 1.61987 10.5492 1.89919V20.7856L10.6503 24.7154L11.2137 24.5131L6.74944 19.7021L2.35738 15.3534C2.28033 15.2667 2.1792 15.2041 2.05399 15.1655C1.92877 15.1174 1.80356 15.0933 1.67835 15.0933C1.40866 15.0933 1.18232 15.1848 0.999314 15.3678C0.825943 15.5508 0.739258 15.7772 0.739258 16.0468C0.739258 16.3069 0.840391 16.5429 1.04266 16.7548L10.7803 26.4924C10.8863 26.5984 10.997 26.6754 11.1126 26.7236C11.2378 26.7814 11.3678 26.8103 11.5027 26.8103C11.6472 26.8103 11.7772 26.7814 11.8928 26.7236C12.018 26.6754 12.1288 26.5984 12.2251 26.4924L21.9772 16.7548C22.1698 16.5429 22.2661 16.3069 22.2661 16.0468C22.2661 15.7772 22.1746 15.5508 21.9916 15.3678C21.8183 15.1848 21.6015 15.0933 21.3415 15.0933C21.2066 15.0933 21.0766 15.1174 20.9514 15.1655C20.8358 15.2041 20.7347 15.2667 20.648 15.3534L16.2559 19.7021L11.7916 24.5131L12.3695 24.7154L12.4707 20.7856V1.89919C12.4707 1.61987 12.3792 1.39352 12.1962 1.22015C12.0132 1.03715 11.782 0.945648 11.5027 0.945648Z" fill="white"/>
</svg>
