<svg width="47" height="257" viewBox="0 0 47 257" fill="none" xmlns="http://www.w3.org/2000/svg">
    <g filter="">
        <path d="M4.25 7.16C4.25 6.05 4.265 5.06 4.295 4.19C4.355 3.29 4.475 2.54 4.655 1.94C4.865 1.31 5.165 0.844999 5.555 0.544997C5.945 0.214998 6.485 0.0499983 7.175 0.0499983C7.685 0.0499983 8.15 0.154999 8.57 0.365C9.02 0.544999 9.455 0.814998 9.875 1.175C10.325 1.505 10.775 1.925 11.225 2.435C11.705 2.915 12.245 3.47 12.845 4.1L36.695 29.3V0.499998H39.98V25.205C39.98 26.345 39.95 27.365 39.89 28.265C39.86 29.135 39.74 29.885 39.53 30.515C39.35 31.145 39.065 31.625 38.675 31.955C38.285 32.285 37.745 32.45 37.055 32.45C36.545 32.45 36.065 32.345 35.615 32.135C35.195 31.955 34.775 31.7 34.355 31.37C33.935 31.01 33.485 30.59 33.005 30.11C32.555 29.6 32.03 29.03 31.43 28.4L7.535 3.155V32H4.25V7.16ZM38.855 82.94V57.56H7.535V82.94H38.855ZM4.25 57.785C4.25 56.855 4.565 56.075 5.195 55.445C5.855 54.815 6.635 54.5 7.535 54.5H38.855C39.755 54.5 40.52 54.815 41.15 55.445C41.81 56.075 42.14 56.855 42.14 57.785V82.715C42.14 83.615 41.825 84.395 41.195 85.055C40.565 85.685 39.785 86 38.855 86H7.535C6.605 86 5.825 85.685 5.195 85.055C4.565 84.395 4.25 83.615 4.25 82.715V57.785ZM4.25 111.785C4.25 110.855 4.565 110.075 5.195 109.445C5.855 108.815 6.635 108.5 7.535 108.5H38.09V111.56H7.535V122.405H34.355V125.465H7.535V136.94H38.09V140H7.535C6.605 140 5.825 139.685 5.195 139.055C4.565 138.395 4.25 137.615 4.25 136.715V111.785ZM38.855 190.94V165.56H7.535V190.94H38.855ZM4.25 165.785C4.25 164.855 4.565 164.075 5.195 163.445C5.855 162.815 6.635 162.5 7.535 162.5H38.855C39.755 162.5 40.52 162.815 41.15 163.445C41.81 164.075 42.14 164.855 42.14 165.785V190.715C42.14 191.615 41.825 192.395 41.195 193.055C40.565 193.685 39.785 194 38.855 194H7.535C6.605 194 5.825 193.685 5.195 193.055C4.565 192.395 4.25 191.615 4.25 190.715V165.785ZM4.25 223.16C4.25 222.05 4.265 221.06 4.295 220.19C4.355 219.29 4.475 218.54 4.655 217.94C4.865 217.31 5.165 216.845 5.555 216.545C5.945 216.215 6.485 216.05 7.175 216.05C7.685 216.05 8.15 216.155 8.57 216.365C9.02 216.545 9.455 216.815 9.875 217.175C10.325 217.505 10.775 217.925 11.225 218.435C11.705 218.915 12.245 219.47 12.845 220.1L36.695 245.3V216.5H39.98V241.205C39.98 242.345 39.95 243.365 39.89 244.265C39.86 245.135 39.74 245.885 39.53 246.515C39.35 247.145 39.065 247.625 38.675 247.955C38.285 248.285 37.745 248.45 37.055 248.45C36.545 248.45 36.065 248.345 35.615 248.135C35.195 247.955 34.775 247.7 34.355 247.37C33.935 247.01 33.485 246.59 33.005 246.11C32.555 245.6 32.03 245.03 31.43 244.4L7.535 219.155V248H4.25V223.16Z"
              fill="white"/>
        <path d="M4.295 4.19L3.29721 4.12348L3.29615 4.13949L3.29559 4.15554L4.295 4.19ZM4.655 1.94L3.70632 1.62377L3.70153 1.63814L3.69717 1.65265L4.655 1.94ZM5.555 0.544997L6.16471 1.33762L6.18317 1.32342L6.20094 1.30838L5.555 0.544997ZM8.57 0.365L8.12279 1.25943L8.15999 1.27803L8.19861 1.29348L8.57 0.365ZM9.875 1.175L9.22421 1.93425L9.25303 1.95896L9.28364 1.9814L9.875 1.175ZM11.225 2.435L10.4752 3.09662L10.4958 3.12003L10.5179 3.14211L11.225 2.435ZM12.845 4.1L13.5713 3.41261L13.5691 3.41035L12.845 4.1ZM36.695 29.3L35.9687 29.9874L37.695 31.8114V29.3H36.695ZM36.695 0.499998V-0.500002H35.695V0.499998H36.695ZM39.98 0.499998H40.98V-0.500002H39.98V0.499998ZM39.89 28.265L38.8922 28.1985L38.8912 28.2145L38.8906 28.2305L39.89 28.265ZM39.53 30.515L38.5813 30.1988L38.5744 30.2194L38.5685 30.2403L39.53 30.515ZM38.675 31.955L38.0291 31.1916L38.675 31.955ZM35.615 32.135L36.0379 31.2288L36.0235 31.2221L36.0089 31.2159L35.615 32.135ZM34.355 31.37L33.7042 32.1293L33.7204 32.1431L33.7372 32.1563L34.355 31.37ZM33.005 30.11L32.2552 30.7716L32.2758 30.795L32.2979 30.8171L33.005 30.11ZM31.43 28.4L30.7037 29.0874L30.7059 29.0897L31.43 28.4ZM7.535 3.155L8.26126 2.46758L6.535 0.643789V3.155H7.535ZM7.535 32V33H8.535V32H7.535ZM4.25 32H3.25V33H4.25V32ZM5.25 7.16C5.25 6.05854 5.26489 5.08037 5.29441 4.22446L3.29559 4.15554C3.26511 5.03963 3.25 6.04146 3.25 7.16H5.25ZM5.29279 4.25652C5.34977 3.40168 5.46153 2.73167 5.61283 2.22735L3.69717 1.65265C3.48847 2.34833 3.36023 3.17831 3.29721 4.12348L5.29279 4.25652ZM5.60368 2.25623C5.7722 1.75067 5.97912 1.48038 6.16471 1.33762L4.94529 -0.247625C4.35088 0.209617 3.9578 0.869327 3.70632 1.62377L5.60368 2.25623ZM6.20094 1.30838C6.35565 1.17747 6.63828 1.05 7.175 1.05V-0.950002C6.33172 -0.950002 5.53435 -0.747478 4.90906 -0.21839L6.20094 1.30838ZM7.175 1.05C7.54338 1.05 7.85333 1.1247 8.12279 1.25943L9.01722 -0.529427C8.44667 -0.814701 7.82662 -0.950002 7.175 -0.950002V1.05ZM8.19861 1.29348C8.53357 1.42746 8.87586 1.63567 9.22421 1.93425L10.5258 0.41574C10.0341 -0.00567055 9.50643 -0.337463 8.94139 -0.563478L8.19861 1.29348ZM9.28364 1.9814C9.66482 2.26094 10.0627 2.62919 10.4752 3.09662L11.9748 1.77338C11.4873 1.2208 10.9852 0.749056 10.4664 0.368593L9.28364 1.9814ZM10.5179 3.14211C10.9908 3.61503 11.525 4.164 12.1209 4.78965L13.5691 3.41035C12.965 2.776 12.4192 2.21497 11.9321 1.72789L10.5179 3.14211ZM12.1187 4.78738L35.9687 29.9874L37.4213 28.6126L13.5713 3.41261L12.1187 4.78738ZM37.695 29.3V0.499998H35.695V29.3H37.695ZM36.695 1.5H39.98V-0.500002H36.695V1.5ZM38.98 0.499998V25.205H40.98V0.499998H38.98ZM38.98 25.205C38.98 26.3283 38.9504 27.3255 38.8922 28.1985L40.8878 28.3315C40.9496 27.4045 40.98 26.3617 40.98 25.205H38.98ZM38.8906 28.2305C38.8629 29.0326 38.7533 29.683 38.5813 30.1988L40.4787 30.8312C40.7267 30.087 40.8571 29.2374 40.8894 28.2995L38.8906 28.2305ZM38.5685 30.2403C38.4276 30.7332 38.2302 31.0214 38.0291 31.1916L39.3209 32.7184C39.8998 32.2286 40.2724 31.5568 40.4915 30.7897L38.5685 30.2403ZM38.0291 31.1916C37.8743 31.3225 37.5917 31.45 37.055 31.45V33.45C37.8983 33.45 38.6957 33.2475 39.3209 32.7184L38.0291 31.1916ZM37.055 31.45C36.6871 31.45 36.3518 31.3753 36.0379 31.2288L35.1921 33.0412C35.7782 33.3147 36.4029 33.45 37.055 33.45V31.45ZM36.0089 31.2159C35.6812 31.0754 35.3355 30.8687 34.9728 30.5837L33.7372 32.1563C34.2145 32.5313 34.7088 32.8346 35.2211 33.0541L36.0089 31.2159ZM35.0058 30.6107C34.609 30.2706 34.1779 29.8687 33.7121 29.4029L32.2979 30.8171C32.7921 31.3113 33.261 31.7494 33.7042 32.1293L35.0058 30.6107ZM33.7548 29.4484C33.2945 28.9267 32.7606 28.3471 32.1541 27.7103L30.7059 29.0897C31.2994 29.7129 31.8155 30.2733 32.2552 30.7716L33.7548 29.4484ZM32.1563 27.7126L8.26126 2.46758L6.80874 3.84242L30.7037 29.0874L32.1563 27.7126ZM6.535 3.155V32H8.535V3.155H6.535ZM7.535 31H4.25V33H7.535V31ZM5.25 32V7.16H3.25V32H5.25ZM38.855 82.94V83.94H39.855V82.94H38.855ZM38.855 57.56H39.855V56.56H38.855V57.56ZM7.535 57.56V56.56H6.535V57.56H7.535ZM7.535 82.94H6.535V83.94H7.535V82.94ZM5.195 55.445L4.50452 54.7216L4.49611 54.7297L4.48789 54.7379L5.195 55.445ZM41.15 55.445L40.4429 56.1521L40.4511 56.1603L40.4595 56.1684L41.15 55.445ZM41.195 85.055L41.9021 85.7621L41.9103 85.7539L41.9184 85.7455L41.195 85.055ZM5.195 85.055L4.47164 85.7455L4.47967 85.7539L4.48789 85.7621L5.195 85.055ZM39.855 82.94V57.56H37.855V82.94H39.855ZM38.855 56.56H7.535V58.56H38.855V56.56ZM6.535 57.56V82.94H8.535V57.56H6.535ZM7.535 83.94H38.855V81.94H7.535V83.94ZM5.25 57.785C5.25 57.1073 5.46861 56.5856 5.90211 56.1521L4.48789 54.7379C3.66139 55.5644 3.25 56.6027 3.25 57.785H5.25ZM5.88548 56.1684C6.36231 55.7132 6.8961 55.5 7.535 55.5V53.5C6.3739 53.5 5.34769 53.9168 4.50452 54.7216L5.88548 56.1684ZM7.535 55.5H38.855V53.5H7.535V55.5ZM38.855 55.5C39.4928 55.5 40.0026 55.7118 40.4429 56.1521L41.8571 54.7379C41.0374 53.9182 40.0172 53.5 38.855 53.5V55.5ZM40.4595 56.1684C40.9176 56.6056 41.14 57.1223 41.14 57.785H43.14C43.14 56.5877 42.7024 55.5444 41.8405 54.7216L40.4595 56.1684ZM41.14 57.785V82.715H43.14V57.785H41.14ZM41.14 82.715C41.14 83.3539 40.9268 83.8877 40.4716 84.3645L41.9184 85.7455C42.7232 84.9023 43.14 83.8761 43.14 82.715H41.14ZM40.4879 84.3479C40.0544 84.7814 39.5327 85 38.855 85V87C40.0373 87 41.0756 86.5886 41.9021 85.7621L40.4879 84.3479ZM38.855 85H7.535V87H38.855V85ZM7.535 85C6.85726 85 6.3356 84.7814 5.90211 84.3479L4.48789 85.7621C5.3144 86.5886 6.35274 87 7.535 87V85ZM5.91836 84.3645C5.46319 83.8877 5.25 83.3539 5.25 82.715H3.25C3.25 83.8761 3.66681 84.9023 4.47164 85.7455L5.91836 84.3645ZM5.25 82.715V57.785H3.25V82.715H5.25ZM5.195 109.445L4.50452 108.722L4.49611 108.73L4.48789 108.738L5.195 109.445ZM38.09 108.5H39.09V107.5H38.09V108.5ZM38.09 111.56V112.56H39.09V111.56H38.09ZM7.535 111.56V110.56H6.535V111.56H7.535ZM7.535 122.405H6.535V123.405H7.535V122.405ZM34.355 122.405H35.355V121.405H34.355V122.405ZM34.355 125.465V126.465H35.355V125.465H34.355ZM7.535 125.465V124.465H6.535V125.465H7.535ZM7.535 136.94H6.535V137.94H7.535V136.94ZM38.09 136.94H39.09V135.94H38.09V136.94ZM38.09 140V141H39.09V140H38.09ZM5.195 139.055L4.47164 139.745L4.47967 139.754L4.48789 139.762L5.195 139.055ZM5.25 111.785C5.25 111.107 5.46861 110.586 5.90211 110.152L4.48789 108.738C3.66139 109.564 3.25 110.603 3.25 111.785H5.25ZM5.88548 110.168C6.36231 109.713 6.8961 109.5 7.535 109.5V107.5C6.3739 107.5 5.34769 107.917 4.50452 108.722L5.88548 110.168ZM7.535 109.5H38.09V107.5H7.535V109.5ZM37.09 108.5V111.56H39.09V108.5H37.09ZM38.09 110.56H7.535V112.56H38.09V110.56ZM6.535 111.56V122.405H8.535V111.56H6.535ZM7.535 123.405H34.355V121.405H7.535V123.405ZM33.355 122.405V125.465H35.355V122.405H33.355ZM34.355 124.465H7.535V126.465H34.355V124.465ZM6.535 125.465V136.94H8.535V125.465H6.535ZM7.535 137.94H38.09V135.94H7.535V137.94ZM37.09 136.94V140H39.09V136.94H37.09ZM38.09 139H7.535V141H38.09V139ZM7.535 139C6.85726 139 6.3356 138.781 5.90211 138.348L4.48789 139.762C5.3144 140.589 6.35274 141 7.535 141V139ZM5.91836 138.365C5.46319 137.888 5.25 137.354 5.25 136.715H3.25C3.25 137.876 3.66681 138.902 4.47164 139.745L5.91836 138.365ZM5.25 136.715V111.785H3.25V136.715H5.25ZM38.855 190.94V191.94H39.855V190.94H38.855ZM38.855 165.56H39.855V164.56H38.855V165.56ZM7.535 165.56V164.56H6.535V165.56H7.535ZM7.535 190.94H6.535V191.94H7.535V190.94ZM5.195 163.445L4.50452 162.722L4.49611 162.73L4.48789 162.738L5.195 163.445ZM41.15 163.445L40.4429 164.152L40.4511 164.16L40.4595 164.168L41.15 163.445ZM41.195 193.055L41.9021 193.762L41.9103 193.754L41.9184 193.745L41.195 193.055ZM5.195 193.055L4.47164 193.745L4.47967 193.754L4.48789 193.762L5.195 193.055ZM39.855 190.94V165.56H37.855V190.94H39.855ZM38.855 164.56H7.535V166.56H38.855V164.56ZM6.535 165.56V190.94H8.535V165.56H6.535ZM7.535 191.94H38.855V189.94H7.535V191.94ZM5.25 165.785C5.25 165.107 5.46861 164.586 5.90211 164.152L4.48789 162.738C3.66139 163.564 3.25 164.603 3.25 165.785H5.25ZM5.88548 164.168C6.36231 163.713 6.8961 163.5 7.535 163.5V161.5C6.3739 161.5 5.34769 161.917 4.50452 162.722L5.88548 164.168ZM7.535 163.5H38.855V161.5H7.535V163.5ZM38.855 163.5C39.4928 163.5 40.0026 163.712 40.4429 164.152L41.8571 162.738C41.0374 161.918 40.0172 161.5 38.855 161.5V163.5ZM40.4595 164.168C40.9176 164.606 41.14 165.122 41.14 165.785H43.14C43.14 164.588 42.7024 163.544 41.8405 162.722L40.4595 164.168ZM41.14 165.785V190.715H43.14V165.785H41.14ZM41.14 190.715C41.14 191.354 40.9268 191.888 40.4716 192.365L41.9184 193.745C42.7232 192.902 43.14 191.876 43.14 190.715H41.14ZM40.4879 192.348C40.0544 192.781 39.5327 193 38.855 193V195C40.0373 195 41.0756 194.589 41.9021 193.762L40.4879 192.348ZM38.855 193H7.535V195H38.855V193ZM7.535 193C6.85726 193 6.3356 192.781 5.90211 192.348L4.48789 193.762C5.3144 194.589 6.35274 195 7.535 195V193ZM5.91836 192.365C5.46319 191.888 5.25 191.354 5.25 190.715H3.25C3.25 191.876 3.66681 192.902 4.47164 193.745L5.91836 192.365ZM5.25 190.715V165.785H3.25V190.715H5.25ZM4.295 220.19L3.29721 220.123L3.29615 220.139L3.29559 220.156L4.295 220.19ZM4.655 217.94L3.70632 217.624L3.70153 217.638L3.69717 217.653L4.655 217.94ZM5.555 216.545L6.16471 217.338L6.18317 217.323L6.20094 217.308L5.555 216.545ZM8.57 216.365L8.12279 217.259L8.15999 217.278L8.19861 217.293L8.57 216.365ZM9.875 217.175L9.22421 217.934L9.25303 217.959L9.28364 217.981L9.875 217.175ZM11.225 218.435L10.4752 219.097L10.4958 219.12L10.5179 219.142L11.225 218.435ZM12.845 220.1L13.5713 219.413L13.5691 219.41L12.845 220.1ZM36.695 245.3L35.9687 245.987L37.695 247.811V245.3H36.695ZM36.695 216.5V215.5H35.695V216.5H36.695ZM39.98 216.5H40.98V215.5H39.98V216.5ZM39.89 244.265L38.8922 244.198L38.8912 244.214L38.8906 244.231L39.89 244.265ZM39.53 246.515L38.5813 246.199L38.5744 246.219L38.5685 246.24L39.53 246.515ZM38.675 247.955L38.0291 247.192L38.675 247.955ZM35.615 248.135L36.0379 247.229L36.0235 247.222L36.0089 247.216L35.615 248.135ZM34.355 247.37L33.7042 248.129L33.7204 248.143L33.7372 248.156L34.355 247.37ZM33.005 246.11L32.2552 246.772L32.2758 246.795L32.2979 246.817L33.005 246.11ZM31.43 244.4L30.7037 245.087L30.7059 245.09L31.43 244.4ZM7.535 219.155L8.26126 218.468L6.535 216.644V219.155H7.535ZM7.535 248V249H8.535V248H7.535ZM4.25 248H3.25V249H4.25V248ZM5.25 223.16C5.25 222.059 5.26489 221.08 5.29441 220.224L3.29559 220.156C3.26511 221.04 3.25 222.041 3.25 223.16H5.25ZM5.29279 220.257C5.34977 219.402 5.46153 218.732 5.61283 218.227L3.69717 217.653C3.48847 218.348 3.36023 219.178 3.29721 220.123L5.29279 220.257ZM5.60368 218.256C5.7722 217.751 5.97912 217.48 6.16471 217.338L4.94529 215.752C4.35088 216.21 3.9578 216.869 3.70632 217.624L5.60368 218.256ZM6.20094 217.308C6.35565 217.177 6.63828 217.05 7.175 217.05V215.05C6.33172 215.05 5.53435 215.253 4.90906 215.782L6.20094 217.308ZM7.175 217.05C7.54338 217.05 7.85333 217.125 8.12279 217.259L9.01722 215.471C8.44667 215.185 7.82662 215.05 7.175 215.05V217.05ZM8.19861 217.293C8.53357 217.427 8.87586 217.636 9.22421 217.934L10.5258 216.416C10.0341 215.994 9.50643 215.663 8.94139 215.437L8.19861 217.293ZM9.28364 217.981C9.66482 218.261 10.0627 218.629 10.4752 219.097L11.9748 217.773C11.4873 217.221 10.9852 216.749 10.4664 216.369L9.28364 217.981ZM10.5179 219.142C10.9908 219.615 11.525 220.164 12.1209 220.79L13.5691 219.41C12.965 218.776 12.4192 218.215 11.9321 217.728L10.5179 219.142ZM12.1187 220.787L35.9687 245.987L37.4213 244.613L13.5713 219.413L12.1187 220.787ZM37.695 245.3V216.5H35.695V245.3H37.695ZM36.695 217.5H39.98V215.5H36.695V217.5ZM38.98 216.5V241.205H40.98V216.5H38.98ZM38.98 241.205C38.98 242.328 38.9504 243.325 38.8922 244.198L40.8878 244.332C40.9496 243.405 40.98 242.362 40.98 241.205H38.98ZM38.8906 244.231C38.8629 245.033 38.7533 245.683 38.5813 246.199L40.4787 246.831C40.7267 246.087 40.8571 245.237 40.8894 244.299L38.8906 244.231ZM38.5685 246.24C38.4276 246.733 38.2302 247.021 38.0291 247.192L39.3209 248.718C39.8998 248.229 40.2724 247.557 40.4915 246.79L38.5685 246.24ZM38.0291 247.192C37.8743 247.323 37.5917 247.45 37.055 247.45V249.45C37.8983 249.45 38.6957 249.247 39.3209 248.718L38.0291 247.192ZM37.055 247.45C36.6871 247.45 36.3518 247.375 36.0379 247.229L35.1921 249.041C35.7782 249.315 36.4029 249.45 37.055 249.45V247.45ZM36.0089 247.216C35.6812 247.075 35.3355 246.869 34.9728 246.584L33.7372 248.156C34.2145 248.531 34.7088 248.835 35.2211 249.054L36.0089 247.216ZM35.0058 246.611C34.609 246.271 34.1779 245.869 33.7121 245.403L32.2979 246.817C32.7921 247.311 33.261 247.749 33.7042 248.129L35.0058 246.611ZM33.7548 245.448C33.2945 244.927 32.7606 244.347 32.1541 243.71L30.7059 245.09C31.2994 245.713 31.8155 246.273 32.2552 246.772L33.7548 245.448ZM32.1563 243.713L8.26126 218.468L6.80874 219.842L30.7037 245.087L32.1563 243.713ZM6.535 219.155V248H8.535V219.155H6.535ZM7.535 247H4.25V249H7.535V247ZM5.25 248V223.16H3.25V248H5.25Z"
              fill="black"/>
    </g>
    <defs>
        <filter id="filter0_d_161_6090" x="0.25" y="0.0499878" width="45.8896" height="256.4"
                filterUnits="userSpaceOnUse" color-interpolation-filters="sRGB">
            <feFlood flood-opacity="0" result="BackgroundImageFix"/>
            <feColorMatrix in="SourceAlpha" type="matrix" values="0 0 0 0 0 0 0 0 0 0 0 0 0 0 0 0 0 0 127 0"
                           result="hardAlpha"/>
            <feOffset dy="4"/>
            <feGaussianBlur stdDeviation="2"/>
            <feComposite in2="hardAlpha" operator="out"/>
            <feColorMatrix type="matrix" values="0 0 0 0 0 0 0 0 0 0 0 0 0 0 0 0 0 0 0.25 0"/>
            <feBlend mode="normal" in2="BackgroundImageFix" result="effect1_dropShadow_161_6090"/>
            <feBlend mode="normal" in="SourceGraphic" in2="effect1_dropShadow_161_6090" result="shape"/>
        </filter>
    </defs>
</svg>
